# xmcd
#
# Track frame offsets:
#	183
#	11585
#	28428
#	41793
#	58088
#	72660
#	89790
#	101570
#	116113
#	130733
#	146173
#	157965
#	172865
#	188653
#	204608
#	219650
#
# Disc length: 3115 seconds
#
# Revision: 2
# Processed by: cddbd v1.5.2PL0 Copyright (c) Steve Scherf et al.
# Submitted via: EasyCDDAExtractor 12.0.1.1
#
DISCID=f60c2910
DTITLE=Charley Pride - Classics with Pride
DYEAR=1991
DGENRE=Country
TTITLE0=Most Beautiful Girl in the World
TTITLE1=Always on My Mind
TTITLE2=You've Got to Stand for Something
TTITLE3=After all These Years
TTITLE4=I Don't Know Why I Love You but I Do
TTITLE5=If Tomorrow Never Comes
TTITLE6=Rambling Rose
TTITLE7=You'll Never Walk Alone
TTITLE8=Please Help Me I'm Falling
TTITLE9=Here in the Real World
TTITLE10=Walk on By
TTITLE11=I Love You Because
TTITLE12=Four in the Morning
TTITLE13=It's Just a Matter of Time
TTITLE14=Ramona
TTITLE15=What's Another Year
EXTD=
EXTT0=
EXTT1=
EXTT2=
EXTT3=
EXTT4=
EXTT5=
EXTT6=
EXTT7=
EXTT8=
EXTT9=
EXTT10=
EXTT11=
EXTT12=
EXTT13=
EXTT14=
EXTT15=
PLAYORDER=
